<?xml version="1.0" encoding="UTF-8" standalone="no"?>
<!-- Created with Inkscape (http://www.inkscape.org/) -->

<svg
   version="1.1"
   id="svg1"
   width="256"
   height="256"
   viewBox="0 0 256 256"
   sodipodi:docname="cachequiz_logo_256.svg"
   inkscape:version="1.4.2 (f4327f4, 2025-05-13)"
   xmlns:inkscape="http://www.inkscape.org/namespaces/inkscape"
   xmlns:sodipodi="http://sodipodi.sourceforge.net/DTD/sodipodi-0.dtd"
   xmlns="http://www.w3.org/2000/svg"
   xmlns:svg="http://www.w3.org/2000/svg">
  <defs
     id="defs1" />
  <sodipodi:namedview
     id="namedview1"
     pagecolor="#ffffff"
     bordercolor="#666666"
     borderopacity="1.0"
     inkscape:showpageshadow="2"
     inkscape:pageopacity="0.0"
     inkscape:pagecheckerboard="0"
     inkscape:deskcolor="#d1d1d1"
     inkscape:zoom="0.91853933"
     inkscape:cx="178"
     inkscape:cy="170.3792"
     inkscape:window-width="2560"
     inkscape:window-height="1017"
     inkscape:window-x="1912"
     inkscape:window-y="-8"
     inkscape:window-maximized="1"
     inkscape:current-layer="g1" />
  <g
     inkscape:groupmode="layer"
     inkscape:label="Image"
     id="g1">
    <path
       style="fill:#000000;stroke-width:0.884959"
       d="m 123.18522,250.864 -2.37951,-2.13558 v -9.90586 -9.90586 l -7.38941,-1.09545 -7.3894,-1.09545 -7.21898,-2.20842 -7.219,-2.20842 -4.76037,-2.03875 -4.76038,-2.03874 -7.83446,-4.94209 -7.834457,-4.94208 -7.068179,-6.63015 -7.068181,-6.63013 -3.813149,-4.78977 -3.813147,-4.78976 -3.656262,-6.53149 -3.656262,-6.5315 -2.789152,-7.73226 -2.789151,-7.73226 -1.333322,-7.40425 -1.333321,-7.40424 v -0.75679 -0.75679 H 18.40904 7.738952 L 5.369477,138.85297 3,137.04803 v -3.35705 -3.35705 l 2.369477,-1.80494 2.369475,-1.80494 H 18.305421 28.87189 l 0.617831,-4.7887 0.617831,-4.7887 2.109249,-7.63255 2.10925,-7.63255 3.239727,-6.884486 3.239728,-6.88449 4.883157,-7.10704 4.88316,-7.107039 8.913117,-8.284713 8.913123,-8.284722 6.820777,-4.116881 6.82078,-4.116882 7.3532,-3.003197 7.3532,-3.003199 6.85898,-1.751099 6.85899,-1.7511 5.17085,-0.534101 5.17087,-0.5341 V 28.343978 18.169452 l 2.22763,-2.026629 2.22763,-2.026629 2.94323,0.08098 2.94323,0.08098 2.02338,2.277846 2.02338,2.277846 v 9.966387 9.966396 h 2.63904 2.63907 l 6.33153,1.289797 6.33154,1.289798 5.64272,1.829807 5.64271,1.829809 5.6205,2.585507 5.6205,2.585508 v 1.076834 1.076834 l -4.44883,4.243478 -4.44883,4.243477 -5.21843,-2.263573 -5.21843,-2.263573 -6.74461,-1.717665 -6.74459,-1.717664 -3.82195,-0.429826 -3.82194,-0.429824 v 8.665372 8.665373 l -2.20733,2.137578 -2.20732,2.137583 h -3.0316 -3.0316 l -1.95532,-2.015575 -1.95531,-2.015577 v -8.726112 -8.726108 l -5.62051,0.736547 -5.62049,0.736548 -4.94604,1.371164 -4.94605,1.371163 -7.47374,3.3771 -7.47372,3.3771 -6.12288,3.941865 -6.12288,3.941862 -6.03093,6.191106 -6.03094,6.191112 -3.221707,4.87721 -3.221708,4.87722 -3.43748,7.103596 -3.437472,7.1036 -1.809476,7.30961 -1.809476,7.30962 -0.0062,2.39487 -0.0063,2.39488 h 9.033682 9.033674 l 2.207316,2.13759 2.207328,2.13757 v 2.55571 2.5557 l -1.717544,2.05593 -1.717532,2.05593 -9.616516,0.29957 -9.616521,0.29958 0.613496,4.7551 0.613495,4.7551 1.783582,6.23291 1.783583,6.2329 4.164092,7.8077 4.16409,7.8077 5.069422,6.15983 5.069419,6.15982 3.611303,3.14193 3.61131,3.14193 5.58758,3.67457 5.58759,3.67456 6.49912,2.9889 6.49911,2.9889 6.14671,1.70226 6.14671,1.70225 5.28679,0.57924 5.28681,0.57924 v -8.31449 -8.31449 l 0.55861,-1.40974 0.55861,-1.40972 2.54421,-1.2741 2.54421,-1.27408 h 1.46275 1.46276 l 2.62866,2.54561 2.62867,2.5456 v 8.34022 8.34022 l 2.92265,-0.006 2.92267,-0.006 7.54811,-1.75231 7.54811,-1.7523 7.44586,-3.379 7.44587,-3.37899 4.34054,-2.85127 4.34056,-2.85125 5.17087,-4.28964 5.17085,-4.28962 5.39872,-6.93827 5.39873,-6.93826 3.54779,-7.12713 3.54778,-7.12714 1.77176,-6.53149 1.77176,-6.5315 0.57783,-4.1366 0.57784,-4.13662 -5.22596,-0.0671 -5.22597,-0.0671 -4.04675,-0.42878 -4.04677,-0.42879 -2.02338,-1.83311 -2.02338,-1.83313 v -2.50037 -2.50038 l 2.20733,-2.13757 2.20732,-2.13763 h 9.03369 9.03367 v -2.06549 -2.0655 l -2.2515,-8.5952 -2.25149,-8.59519 -3.17792,-6.480376 -3.17793,-6.48037 -2.97994,-4.01681 -2.97995,-4.0168 4.69214,-5.121124 4.69214,-5.121106 2.8864,3.854194 2.88641,3.854196 3.03293,4.8302 3.03291,4.83019 2.80996,6.79581 2.80997,6.795806 1.66678,6.66218 1.66678,6.66217 0.5705,4.13661 0.5705,4.13661 h 10.7792 10.7792 l 2.20526,2.30434 2.20526,2.30433 v 2.11699 2.11698 l -2.62867,2.54561 -2.62865,2.54561 h -10.37015 -10.37016 l -0.50704,3.26574 -0.50705,3.26575 -1.42141,6.53149 -1.42144,6.5315 -3.17201,7.83779 -3.17202,7.83779 -3.13638,5.22519 -3.13638,5.2252 -4.32601,5.22519 -4.32599,5.22519 -5.68831,5.34362 -5.68831,5.34361 -5.5295,3.8828 -5.52951,3.88279 -7.51005,3.54633 -7.51006,3.54634 -7.01441,2.23105 -7.01441,2.23104 -7.59889,1.06397 -7.5989,1.06397 v 9.33824 9.33826 l -2.32814,2.67941 -2.32815,2.67942 h -2.48658 -2.48658 z m 0.31833,-66.72337 -2.2482,-0.91018 -2.48736,-2.30346 -2.48738,-2.30346 -0.87241,-3.13755 -0.87241,-3.13753 0.85952,-2.90228 0.85952,-2.90229 1.59885,-1.71089 1.59887,-1.71089 2.43047,-1.21714 2.43049,-1.21715 h 3.25126 3.25126 l 1.96426,0.9797 1.96426,0.9797 2.03349,1.79389 2.03347,1.7939 0.96003,3.45261 0.96003,3.45262 -1.48981,3.77774 -1.4898,3.77774 -2.66992,1.84108 -2.66991,1.84107 -3.33019,0.33647 -3.3302,0.33645 z m -6.85512,-32.56178 -0.50372,-1.27117 0.97846,-4.41822 0.97846,-4.41822 1.9252,-3.67241 1.92522,-3.67242 8.81209,-8.40615 8.81211,-8.40617 0.64109,-3.30935 0.6411,-3.30936 -1.25839,-3.43518 -1.25838,-3.43517 -3.13345,-1.61348 -3.13345,-1.61347 h -3.42216 -3.42215 l -3.36573,1.66281 -3.36571,1.66281 -1.09314,2.03837 -1.09314,2.03837 -1.21463,3.48346 -1.21463,3.48347 -10.04495,0.24639 -10.04495,0.24639 -0.55861,-1.40972 -0.55861,-1.40971 1.13262,-4.93274 1.13262,-4.93274 2.04284,-3.920656 2.04285,-3.92068 5.00724,-4.586 5.00723,-4.586 4.05263,-1.68228 4.05262,-1.68226 5.51471,-0.96841 5.51469,-0.9684 6.04618,0.90844 6.04618,0.90846 3.96398,1.35439 3.96399,1.35438 2.99257,1.70988 2.99257,1.70986 h 0.30598 0.30595 l 22.12464,-23.468137 22.12464,-23.46814 V 40.735688 40.001687 L 185.77871,34.4981 172.51433,28.994513 171.6916,28.250536 170.86888,27.50656 175.0453,25.772901 179.22172,24.039242 212.24256,13.519621 245.2634,3 l 1.39523,0.279851 1.39523,0.279851 -0.27741,1.71016 -0.27741,1.710162 -9.0166,34.834628 -9.01661,34.834629 -0.31342,0.304926 -0.31342,0.304915 -0.83583,-0.500251 -0.83584,-0.500251 -6.40629,-10.690498 -6.40629,-10.690485 -0.94008,-1.306299 -0.94007,-1.306299 -4.24273,4.483064 -4.24273,4.483063 -13.42597,14.240548 -13.42598,14.24055 -6.78358,6.74614 -6.78357,6.746116 -0.0425,7.18773 -0.0425,7.18772 -2.11647,3.91889 -2.11648,3.9189 -9.22984,8.70865 -9.22984,8.70866 -1.10326,3.9189 -1.10325,3.91889 -0.31871,1.08858 -0.31872,1.08859 H 127.5502 117.15203 Z"
       id="path1" />
  </g>
</svg>
